<?xml version="1.0" standalone="no"?><svg xmlns="http://www.w3.org/2000/svg" viewBox="0 0 1440 320"><path fill="#ffffff" fill-opacity="1" d="M0,128L40,117.3C80,107,160,85,240,90.7C320,96,400,128,480,165.3C560,203,640,245,720,224C800,203,880,117,960,112C1040,107,1120,181,1200,224C1280,267,1360,277,1400,282.7L1440,288L1440,320L1400,320C1360,320,1280,320,1200,320C1120,320,1040,320,960,320C880,320,800,320,720,320C640,320,560,320,480,320C400,320,320,320,240,320C160,320,80,320,40,320L0,320Z"></path></svg>