<svg width="306" height="38" viewBox="0 0 306 38" fill="none" xmlns="http://www.w3.org/2000/svg">
<path d="M48.7662 37.9459C44.494 37.9459 41.4116 35.0798 41.4116 31.0781C41.4116 26.157 44.9807 23.5613 52.2271 22.0472L56.8778 21.0738C59.149 20.5871 59.8521 20.2085 59.8521 19.0188C59.8521 17.8291 58.5542 17.1802 56.2829 17.1802C53.6872 17.1802 50.2263 18.6403 47.9009 20.7493L44.7104 13.9896C48.4417 11.0694 52.7138 9.6634 57.5808 9.6634C66.5577 9.6634 70.8298 13.8274 69.4779 21.2901L67.9637 29.5099C67.3688 33.0249 67.3148 35.0798 68.0718 37.4593H58.6083C58.1216 35.9451 58.0134 34.9176 58.2297 33.133C56.0666 36.3777 52.9301 37.9459 48.7662 37.9459ZM53.7954 31.2403C56.2829 31.2403 57.8512 29.8343 58.2838 27.2386L58.5542 25.6163C57.5808 26.3193 57.0941 26.4274 55.5259 26.7519L54.0658 27.0764C52.2271 27.509 51.416 28.1038 51.416 29.4558C51.416 30.5914 52.2812 31.2403 53.7954 31.2403Z" fill="white"/>
<path d="M80.3871 37.4593H70.2747L76.8721 0.145752H86.9846L80.3871 37.4593Z" fill="white"/>
<path d="M97.8588 38C90.1798 38 84.8262 33.079 84.8262 26.103C84.8262 16.8557 92.2348 9.71748 101.698 9.71748C105.916 9.71748 109.756 11.448 112.027 14.4222L105.267 20.4789C104.24 18.6943 102.942 17.9373 100.887 17.9373C97.5885 17.9373 95.1009 21.1278 95.1009 25.2918C95.1009 28.0498 96.6691 29.7262 99.2649 29.7262C101.103 29.7262 102.401 29.0772 104.132 27.4008L108.999 33.7279C105.862 36.594 101.807 38 97.8588 38Z" fill="white"/>
<path d="M123.077 37.9459C115.235 37.9459 109.557 32.9167 109.557 25.8326C109.557 16.8557 116.858 9.6634 126.43 9.6634C134.271 9.6634 139.949 14.6926 139.949 21.7768C139.949 30.7536 132.648 37.9459 123.077 37.9459ZM123.78 29.7802C127.024 29.7802 129.674 26.4815 129.674 22.4257C129.674 19.6137 128.106 17.8291 125.672 17.8291C122.428 17.8291 119.832 21.1278 119.832 25.1837C119.832 27.9957 121.346 29.7802 123.78 29.7802Z" fill="white"/>
<path d="M149.718 37.4593H139.606L144.419 10.2042H154.099L153.504 13.9355C155.667 11.1235 158.263 9.6634 161.615 9.6634C167.997 9.6634 170.917 14.26 169.781 20.8034L166.861 37.4593H156.748L159.398 22.2635C159.885 19.6137 158.857 18.0995 156.586 18.0995C154.531 18.0995 152.909 19.6677 152.422 22.2635L149.718 37.4593Z" fill="white"/>
<path d="M183.984 38C176.305 38 170.951 33.079 170.951 26.103C170.951 16.8557 178.36 9.71748 187.823 9.71748C192.041 9.71748 195.881 11.448 198.152 14.4222L191.392 20.4789C190.365 18.6943 189.067 17.9373 187.012 17.9373C183.713 17.9373 181.226 21.1278 181.226 25.2918C181.226 28.0498 182.794 29.7262 185.39 29.7262C187.228 29.7262 188.526 29.0772 190.257 27.4008L195.124 33.7279C191.987 36.594 187.931 38 183.984 38Z" fill="white"/>
<path d="M205.674 37.4593H195.561L202.159 0.145752H212.271L205.674 37.4593Z" fill="white"/>
<path d="M223.686 37.9459C215.845 37.9459 210.167 32.9167 210.167 25.8326C210.167 16.8557 217.467 9.6634 227.039 9.6634C234.88 9.6634 240.558 14.6926 240.558 21.7768C240.558 30.7536 233.258 37.9459 223.686 37.9459ZM224.389 29.7802C227.634 29.7802 230.284 26.4815 230.284 22.4257C230.284 19.6137 228.715 17.8291 226.282 17.8291C223.037 17.8291 220.442 21.1278 220.442 25.1837C220.442 27.9957 221.956 29.7802 224.389 29.7802Z" fill="white"/>
<path d="M249.895 38C244.325 38 240.648 33.2953 241.784 26.8601L244.758 10.2042H254.87L252.167 25.3459C251.68 28.1579 252.924 29.5099 254.87 29.5099C257.034 29.5099 258.548 27.9957 259.034 25.3459L261.684 10.2042H271.797L266.984 37.4593H257.196L257.845 33.782C255.736 36.4859 253.302 38 249.895 38Z" fill="white"/>
<path d="M281.515 38C275.782 38 271.402 32.9167 271.402 26.3734C271.402 17.2343 277.729 9.6634 285.408 9.6634C288.599 9.6634 291.086 11.0694 292.763 13.7733L295.142 0.145752H305.255L298.657 37.4593H288.815L289.464 34.1605C287.193 36.7022 284.705 38 281.515 38ZM285.57 29.7802C288.815 29.7802 291.465 26.5356 291.465 22.642C291.465 19.7218 289.897 17.8291 287.463 17.8291C284.218 17.8291 281.569 21.0197 281.569 24.9673C281.569 27.8875 283.137 29.7802 285.57 29.7802Z" fill="white"/>
<path d="M0 0L0.0567036 0.332635C1.26809 6.11314 4.8404 9.68958 11.1448 11.3946C9.60348 11.7377 7.95393 12.5434 6.78378 13.4167C8.36459 16.2036 12.1937 18.6623 16.9223 20.5918L13.9698 37.4592H24.3952L26.5985 24.7567H39.9795L41.7529 15.1484H28.2644L29.178 9.6114H45.1385L46.8581 0.00308417L0 0Z" fill="white"/>
</svg>
