<svg width="324" height="247" viewBox="0 0 324 247" fill="none" xmlns="http://www.w3.org/2000/svg">
<g filter="url(#filter0_d_2_2538)">
<rect x="20" y="20" width="284" height="207" rx="12" fill="white"/>
</g>
<path d="M41.776 40.8L45.952 52H44.48L43.504 49.248H38.64L37.664 52H36.192L40.368 40.8H41.776ZM39.04 48.096H43.104L41.072 42.384L39.04 48.096ZM54.5244 52H53.4364L53.2764 50.64C52.6204 51.632 51.6124 52.16 50.4444 52.16C48.3324 52.16 46.7804 50.416 46.7804 47.92C46.7804 45.424 48.3324 43.68 50.4284 43.68C51.5964 43.68 52.6204 44.208 53.2444 45.136V40.64H54.5244V52ZM53.3084 47.92C53.3084 46.064 52.2524 44.816 50.7004 44.816C49.1484 44.816 48.0924 46.064 48.0924 47.92C48.0924 49.776 49.1484 51.024 50.7004 51.024C52.2524 51.024 53.3084 49.776 53.3084 47.92ZM64.0275 52H62.9395L62.7795 50.64C62.1235 51.632 61.1155 52.16 59.9475 52.16C57.8355 52.16 56.2835 50.416 56.2835 47.92C56.2835 45.424 57.8355 43.68 59.9315 43.68C61.0995 43.68 62.1235 44.208 62.7475 45.136V40.64H64.0275V52ZM62.8115 47.92C62.8115 46.064 61.7555 44.816 60.2035 44.816C58.6515 44.816 57.5955 46.064 57.5955 47.92C57.5955 49.776 58.6515 51.024 60.2035 51.024C61.7555 51.024 62.8115 49.776 62.8115 47.92ZM73.622 43.76V44.896C73.462 44.848 73.27 44.816 73.014 44.816C71.814 44.816 71.126 45.792 71.126 47.504V52H69.846V43.84H70.934L71.094 45.04C71.398 44.256 72.182 43.68 72.966 43.68C73.238 43.68 73.446 43.712 73.622 43.76ZM77.7886 52.16C76.1246 52.16 75.0046 50.992 75.0046 49.184V43.84H76.2846V48.912C76.2846 50.224 77.0046 51.024 78.2206 51.024C79.5326 51.024 80.3486 50.048 80.3486 48.528V43.84H81.6286V52H80.5406L80.3806 50.816C79.8206 51.696 78.9246 52.16 77.7886 52.16ZM85.0712 52H83.7912V40.64H85.0712V52ZM94.5584 47.904V48.24H88.1424C88.1744 49.808 89.1664 51.024 90.7824 51.024C91.8064 51.024 92.6544 50.592 93.0704 49.6H94.4304C93.9664 51.264 92.4464 52.16 90.7984 52.16C88.3344 52.16 86.8144 50.352 86.8144 47.936C86.8144 45.632 88.3024 43.68 90.7024 43.68C93.2144 43.68 94.5584 45.488 94.5584 47.904ZM88.1744 47.184H93.2304C93.0704 45.712 92.2384 44.8 90.7344 44.8C89.3104 44.8 88.3344 45.792 88.1744 47.184Z" fill="#1C1C1E"/>
<rect x="36" y="72" width="238" height="33" rx="8" fill="#F2F2F7"/>
<rect x="36" y="121" width="109" height="33" rx="8" fill="#F2F2F7"/>
<rect x="36" y="170" width="154" height="33" rx="8" fill="#F2F2F7"/>
<defs>
<filter id="filter0_d_2_2538" x="0" y="0" width="324" height="247" filterUnits="userSpaceOnUse" color-interpolation-filters="sRGB">
<feFlood flood-opacity="0" result="BackgroundImageFix"/>
<feColorMatrix in="SourceAlpha" type="matrix" values="0 0 0 0 0 0 0 0 0 0 0 0 0 0 0 0 0 0 127 0" result="hardAlpha"/>
<feOffset/>
<feGaussianBlur stdDeviation="10"/>
<feColorMatrix type="matrix" values="0 0 0 0 0 0 0 0 0 0 0 0 0 0 0 0 0 0 0.08 0"/>
<feBlend mode="normal" in2="BackgroundImageFix" result="effect1_dropShadow_2_2538"/>
<feBlend mode="normal" in="SourceGraphic" in2="effect1_dropShadow_2_2538" result="shape"/>
</filter>
</defs>
</svg>
