<svg width="541" height="496" viewBox="0 0 541 496" fill="none" xmlns="http://www.w3.org/2000/svg">
<g filter="url(#filter0_d_2_2525)">
<rect x="20" y="20" width="501" height="456" rx="12" fill="white"/>
</g>
<rect x="44" y="96" width="142" height="95" rx="8" fill="#F2F2F7"/>
<path d="M44 223C44 218.582 47.5817 215 52 215H382C386.418 215 390 218.582 390 223V262C390 266.418 386.418 270 382 270H52C47.5817 270 44 266.418 44 262V223Z" fill="#F2F2F7"/>
<path d="M44 410C44 405.582 47.5817 402 52 402H186C190.418 402 194 405.582 194 410V436C194 440.418 190.418 444 186 444H52C47.5817 444 44 440.418 44 436V410Z" fill="#F2F2F7"/>
<path d="M217 410C217 405.582 220.582 402 225 402H359C363.418 402 367 405.582 367 410V436C367 440.418 363.418 444 359 444H225C220.582 444 217 440.418 217 436V410Z" fill="#F2F2F7"/>
<path d="M44 294C44 289.582 47.5817 286 52 286H382C386.418 286 390 289.582 390 294V298C390 302.418 386.418 306 382 306H52C47.5817 306 44 302.418 44 298V294Z" fill="#F2F2F7"/>
<path d="M44 330C44 325.582 47.5817 322 52 322H382C386.418 322 390 325.582 390 330V334C390 338.418 386.418 342 382 342H52C47.5817 342 44 338.418 44 334V330Z" fill="#F2F2F7"/>
<path d="M44 366C44 361.582 47.5817 358 52 358H246C250.418 358 254 361.582 254 366V370C254 374.418 250.418 378 246 378H52C47.5817 378 44 374.418 44 370V366Z" fill="#F2F2F7"/>
<rect x="200" y="96" width="142" height="95" rx="8" fill="#F2F2F7"/>
<rect x="356" y="96" width="142" height="95" rx="8" fill="#F2F2F7"/>
<path d="M48.608 56.8C52.256 56.8 54.144 58.752 54.144 62.4C54.144 65.92 52.096 68 48.608 68H45.088V56.8H48.608ZM48.64 66.848C51.248 66.848 52.768 65.312 52.768 62.368C52.768 59.344 51.408 57.952 48.64 57.952H46.432V66.848H48.64ZM59.242 59.68C61.258 59.68 62.314 60.752 62.314 62.8V68H61.242L61.082 66.784C60.602 67.648 59.642 68.128 58.458 68.128C56.746 68.128 55.594 67.184 55.594 65.792C55.594 64.016 57.498 63.072 61.034 63.072V62.8C61.034 61.408 60.474 60.816 59.194 60.816C58.074 60.816 57.274 61.36 57.21 62.176H55.946C56.026 60.752 57.434 59.68 59.242 59.68ZM61.05 64.816V64.096C58.33 64.096 56.906 64.752 56.906 65.824C56.906 66.576 57.546 67.056 58.554 67.056C60.074 67.056 61.05 66.176 61.05 64.816ZM65.491 62.016C65.491 62.608 65.955 62.96 67.059 63.2L67.555 63.312C69.507 63.744 70.387 64.48 70.387 65.664C70.387 67.2 69.187 68.16 67.267 68.16C65.395 68.16 64.099 67.12 63.987 65.536H65.299C65.331 66.432 66.147 67.024 67.347 67.024C68.371 67.024 69.091 66.48 69.091 65.696C69.091 65.056 68.643 64.736 67.331 64.416L66.867 64.304C64.979 63.856 64.211 63.2 64.211 62.064C64.211 60.672 65.411 59.68 67.123 59.68C68.883 59.68 70.067 60.624 70.179 62.064H68.899C68.803 61.28 68.115 60.784 67.123 60.784C66.163 60.784 65.491 61.296 65.491 62.016ZM75.9969 59.68C77.6609 59.68 78.7809 60.864 78.7809 62.656V68H77.5009V62.944C77.5009 61.632 76.7809 60.832 75.5649 60.832C74.2529 60.832 73.4369 61.808 73.4369 63.328V68H72.1569V56.64H73.4369V61.024C73.9329 60.176 74.8609 59.68 75.9969 59.68ZM81.998 68H80.91V56.64H82.19V61.136C82.814 60.208 83.838 59.68 85.006 59.68C87.102 59.68 88.654 61.424 88.654 63.92C88.654 66.416 87.102 68.16 84.99 68.16C83.822 68.16 82.814 67.632 82.158 66.64L81.998 68ZM82.126 63.92C82.126 65.776 83.182 67.024 84.734 67.024C86.286 67.024 87.342 65.776 87.342 63.92C87.342 62.064 86.286 60.816 84.734 60.816C83.182 60.816 82.126 62.064 82.126 63.92ZM93.9335 59.68C96.3015 59.68 97.9175 61.408 97.9175 63.92C97.9175 66.432 96.3015 68.16 93.9335 68.16C91.5495 68.16 89.9175 66.432 89.9175 63.92C89.9175 61.408 91.5495 59.68 93.9335 59.68ZM93.9175 67.024C95.5335 67.024 96.6055 65.792 96.6055 63.92C96.6055 62.048 95.5335 60.816 93.9175 60.816C92.3015 60.816 91.2295 62.048 91.2295 63.92C91.2295 65.792 92.3015 67.024 93.9175 67.024ZM102.883 59.68C104.899 59.68 105.955 60.752 105.955 62.8V68H104.883L104.723 66.784C104.243 67.648 103.283 68.128 102.099 68.128C100.387 68.128 99.2346 67.184 99.2346 65.792C99.2346 64.016 101.139 63.072 104.675 63.072V62.8C104.675 61.408 104.115 60.816 102.835 60.816C101.715 60.816 100.915 61.36 100.851 62.176H99.5866C99.6666 60.752 101.075 59.68 102.883 59.68ZM104.691 64.816V64.096C101.971 64.096 100.547 64.752 100.547 65.824C100.547 66.576 101.187 67.056 102.195 67.056C103.715 67.056 104.691 66.176 104.691 64.816ZM111.788 59.76V60.896C111.628 60.848 111.436 60.816 111.18 60.816C109.98 60.816 109.292 61.792 109.292 63.504V68H108.012V59.84H109.1L109.26 61.04C109.564 60.256 110.348 59.68 111.132 59.68C111.404 59.68 111.612 59.712 111.788 59.76ZM120.14 68H119.052L118.892 66.64C118.236 67.632 117.228 68.16 116.06 68.16C113.948 68.16 112.396 66.416 112.396 63.92C112.396 61.424 113.948 59.68 116.044 59.68C117.212 59.68 118.236 60.208 118.86 61.136V56.64H120.14V68ZM118.924 63.92C118.924 62.064 117.868 60.816 116.316 60.816C114.764 60.816 113.708 62.064 113.708 63.92C113.708 65.776 114.764 67.024 116.316 67.024C117.868 67.024 118.924 65.776 118.924 63.92Z" fill="#1C1C1E"/>
<rect x="20" y="20" width="501" height="456" rx="12" fill="black" fill-opacity="0.02"/>
<defs>
<filter id="filter0_d_2_2525" x="0" y="0" width="541" height="496" filterUnits="userSpaceOnUse" color-interpolation-filters="sRGB">
<feFlood flood-opacity="0" result="BackgroundImageFix"/>
<feColorMatrix in="SourceAlpha" type="matrix" values="0 0 0 0 0 0 0 0 0 0 0 0 0 0 0 0 0 0 127 0" result="hardAlpha"/>
<feOffset/>
<feGaussianBlur stdDeviation="10"/>
<feColorMatrix type="matrix" values="0 0 0 0 0 0 0 0 0 0 0 0 0 0 0 0 0 0 0.08 0"/>
<feBlend mode="normal" in2="BackgroundImageFix" result="effect1_dropShadow_2_2525"/>
<feBlend mode="normal" in="SourceGraphic" in2="effect1_dropShadow_2_2525" result="shape"/>
</filter>
</defs>
</svg>
